<svg width="780" height="210" viewBox="0 0 780 210" fill="none" xmlns="http://www.w3.org/2000/svg">
<path d="M97.0422 100.425L92.8116 104.658L97.035 108.899L164.278 176.423C151.688 187.57 136.36 195.202 119.831 198.498C101.347 202.185 82.1897 200.284 64.7811 193.036C47.3723 185.788 32.4927 173.517 22.0278 157.772C11.5628 142.027 5.98399 123.517 6.00003 104.584C6.01608 85.6515 11.6262 67.151 22.1179 51.4239C32.6094 35.697 47.5098 23.4514 64.9309 16.233C82.3517 9.01475 101.513 7.14686 119.99 10.8647C136.513 14.1894 151.828 21.8478 164.399 33.0157L97.0422 100.425Z" stroke="white" stroke-width="12"/>
<path d="M62.4749 198.575C62.4749 198.575 45.1524 176.943 26 163L92 97L172.878 176.557C158.71 190.779 140.657 200.463 121.005 204.382C101.352 208.302 62.4749 198.575 62.4749 198.575Z" fill="white"/>
<path d="M209.938 5.10938H242.844V20.2969H229.672V34.6875H242V49.125H229.672V65.8125H244.156V81H209.938V5.10938ZM286.812 18.7969L279.266 48.5156L288.406 81H269.984C268.172 72.8125 266.797 65.7656 265.859 59.8594C264.609 67.2344 263.25 74.2812 261.781 81H245.938L254.094 48.5156L245.938 18.7969H261.781C264.312 31.4844 265.672 38.6875 265.859 40.4062C267.672 29.8125 269.047 22.6094 269.984 18.7969H286.812ZM310.203 18.7969L309.875 24.2812C311.562 22.0625 313.422 20.4062 315.453 19.3125C317.484 18.2188 319.703 17.6719 322.109 17.6719C325.047 17.6719 327.578 18.4688 329.703 20.0625C331.859 21.625 333.203 23.4375 333.734 25.5C334.266 27.5625 334.531 31.0625 334.531 36V62.2031C334.531 67.8594 334.188 71.8906 333.5 74.2969C332.844 76.6719 331.469 78.5781 329.375 80.0156C327.312 81.4219 324.812 82.125 321.875 82.125C319.531 82.125 317.359 81.5781 315.359 80.4844C313.359 79.3906 311.531 77.7656 309.875 75.6094V89.8594H290.938V18.7969H310.203ZM315.594 36.8906C315.594 33.0469 315.453 30.7188 315.172 29.9062C314.891 29.0938 314.109 28.6875 312.828 28.6875C311.578 28.6875 310.766 29.1562 310.391 30.0938C310.047 31.0312 309.875 33.2969 309.875 36.8906V62.6719C309.875 66.4219 310.062 68.7656 310.438 69.7031C310.812 70.6406 311.625 71.1094 312.875 71.1094C314.094 71.1094 314.844 70.6875 315.125 69.8438C315.438 68.9688 315.594 66.875 315.594 63.5625V36.8906ZM360.312 5.10938V81H340.812V5.10938H360.312ZM410 40.6406V55.875C410 61.4688 409.719 65.5781 409.156 68.2031C408.594 70.7969 407.391 73.2344 405.547 75.5156C403.703 77.7656 401.328 79.4375 398.422 80.5312C395.547 81.5938 392.234 82.125 388.484 82.125C384.297 82.125 380.75 81.6719 377.844 80.7656C374.938 79.8281 372.672 78.4375 371.047 76.5938C369.453 74.7188 368.312 72.4688 367.625 69.8438C366.938 67.1875 366.594 63.2188 366.594 57.9375V42C366.594 36.2188 367.219 31.7031 368.469 28.4531C369.719 25.2031 371.969 22.5938 375.219 20.625C378.469 18.6562 382.625 17.6719 387.688 17.6719C391.938 17.6719 395.578 18.3125 398.609 19.5938C401.672 20.8438 404.031 22.4844 405.688 24.5156C407.344 26.5469 408.469 28.6406 409.062 30.7969C409.688 32.9531 410 36.2344 410 40.6406ZM391.062 35.9531C391.062 32.7656 390.891 30.7656 390.547 29.9531C390.203 29.1094 389.469 28.6875 388.344 28.6875C387.219 28.6875 386.469 29.1094 386.094 29.9531C385.719 30.7656 385.531 32.7656 385.531 35.9531V64.0312C385.531 66.9688 385.719 68.8906 386.094 69.7969C386.469 70.6719 387.203 71.1094 388.297 71.1094C389.422 71.1094 390.156 70.7031 390.5 69.8906C390.875 69.0781 391.062 67.3281 391.062 64.6406V35.9531ZM435.219 18.7969L434.469 26.9531C437.219 21.1094 441.203 18.0156 446.422 17.6719V39.5625C442.953 39.5625 440.406 40.0312 438.781 40.9688C437.156 41.9062 436.156 43.2188 435.781 44.9062C435.406 46.5625 435.219 50.4062 435.219 56.4375V81H416.281V18.7969H435.219ZM493.578 51H469.062V64.4531C469.062 67.2656 469.266 69.0781 469.672 69.8906C470.078 70.7031 470.859 71.1094 472.016 71.1094C473.453 71.1094 474.406 70.5781 474.875 69.5156C475.375 68.4219 475.625 66.3281 475.625 63.2344V55.0312H493.578V59.625C493.578 63.4688 493.328 66.4219 492.828 68.4844C492.359 70.5469 491.234 72.75 489.453 75.0938C487.672 77.4375 485.406 79.2031 482.656 80.3906C479.938 81.5469 476.516 82.125 472.391 82.125C468.391 82.125 464.859 81.5469 461.797 80.3906C458.734 79.2344 456.344 77.6562 454.625 75.6562C452.938 73.625 451.766 71.4062 451.109 69C450.453 66.5625 450.125 63.0312 450.125 58.4062V40.2656C450.125 34.8281 450.859 30.5469 452.328 27.4219C453.797 24.2656 456.203 21.8594 459.547 20.2031C462.891 18.5156 466.734 17.6719 471.078 17.6719C476.391 17.6719 480.766 18.6875 484.203 20.7188C487.672 22.7188 490.094 25.3906 491.469 28.7344C492.875 32.0469 493.578 36.7188 493.578 42.75V51ZM474.594 40.875V36.3281C474.594 33.1094 474.422 31.0312 474.078 30.0938C473.734 29.1562 473.031 28.6875 471.969 28.6875C470.656 28.6875 469.844 29.0938 469.531 29.9062C469.219 30.6875 469.062 32.8281 469.062 36.3281V40.875H474.594Z" fill="white"/>
<path d="M272.688 143.938H246.375V126.312C246.375 121.188 246.083 118 245.5 116.75C244.958 115.458 243.729 114.812 241.812 114.812C239.646 114.812 238.271 115.583 237.688 117.125C237.104 118.667 236.812 122 236.812 127.125V174.125C236.812 179.042 237.104 182.25 237.688 183.75C238.271 185.25 239.583 186 241.625 186C243.583 186 244.854 185.25 245.438 183.75C246.062 182.25 246.375 178.729 246.375 173.188V160.5H272.688V164.438C272.688 174.896 271.938 182.312 270.438 186.688C268.979 191.062 265.708 194.896 260.625 198.188C255.583 201.479 249.354 203.125 241.938 203.125C234.229 203.125 227.875 201.729 222.875 198.938C217.875 196.146 214.562 192.292 212.938 187.375C211.312 182.417 210.5 174.979 210.5 165.062V135.5C210.5 128.208 210.75 122.75 211.25 119.125C211.75 115.458 213.229 111.938 215.688 108.562C218.188 105.188 221.625 102.542 226 100.625C230.417 98.6667 235.479 97.6875 241.188 97.6875C248.938 97.6875 255.333 99.1875 260.375 102.188C265.417 105.188 268.729 108.938 270.312 113.438C271.896 117.896 272.688 124.854 272.688 134.312V143.938ZM306.625 99.8125V122.562C308.792 120.562 311.125 119.062 313.625 118.062C316.167 117.062 318.875 116.562 321.75 116.562C326.167 116.562 329.917 117.688 333 119.938C336.125 122.188 338.021 124.792 338.688 127.75C339.396 130.667 339.75 136.021 339.75 143.812V201H314.5V142.625C314.5 137.792 314.25 134.688 313.75 133.312C313.292 131.938 312.229 131.25 310.562 131.25C309.021 131.25 307.979 131.958 307.438 133.375C306.896 134.792 306.625 137.604 306.625 141.812V201H281.375V99.8125H306.625ZM374.5 99.8125V113H348.5V99.8125H374.5ZM374.5 118.062V201H348.5V118.062H374.5ZM409.312 118.062L408.875 125.688C410.708 122.646 412.938 120.375 415.562 118.875C418.229 117.333 421.292 116.562 424.75 116.562C429.083 116.562 432.625 117.583 435.375 119.625C438.125 121.667 439.896 124.25 440.688 127.375C441.479 130.458 441.875 135.625 441.875 142.875V201H416.625V143.562C416.625 137.854 416.438 134.375 416.062 133.125C415.688 131.875 414.646 131.25 412.938 131.25C411.146 131.25 410.021 131.979 409.562 133.438C409.104 134.854 408.875 138.688 408.875 144.938V201H383.625V118.062H409.312ZM473.188 150.188H449.5V144.625C449.5 138.208 450.229 133.271 451.688 129.812C453.188 126.312 456.167 123.229 460.625 120.562C465.083 117.896 470.875 116.562 478 116.562C486.542 116.562 492.979 118.083 497.312 121.125C501.646 124.125 504.25 127.833 505.125 132.25C506 136.625 506.438 145.667 506.438 159.375V201H481.875V193.625C480.333 196.583 478.333 198.812 475.875 200.312C473.458 201.771 470.562 202.5 467.188 202.5C462.771 202.5 458.708 201.271 455 198.812C451.333 196.312 449.5 190.875 449.5 182.5V175.688C449.5 169.479 450.479 165.25 452.438 163C454.396 160.75 459.25 158.125 467 155.125C475.292 151.875 479.729 149.688 480.312 148.562C480.896 147.438 481.188 145.146 481.188 141.688C481.188 137.354 480.854 134.542 480.188 133.25C479.562 131.917 478.5 131.25 477 131.25C475.292 131.25 474.229 131.812 473.812 132.938C473.396 134.021 473.188 136.875 473.188 141.5V150.188ZM481.188 161.562C477.146 164.521 474.792 167 474.125 169C473.5 171 473.188 173.875 473.188 177.625C473.188 181.917 473.458 184.688 474 185.938C474.583 187.188 475.708 187.812 477.375 187.812C478.958 187.812 479.979 187.333 480.438 186.375C480.938 185.375 481.188 182.792 481.188 178.625V161.562ZM568.875 99.8125V120.062H553.25V201H526.938V120.062H511.375V99.8125H568.875ZM631.25 147.188V167.5C631.25 174.958 630.875 180.438 630.125 183.938C629.375 187.396 627.771 190.646 625.312 193.688C622.854 196.688 619.688 198.917 615.812 200.375C611.979 201.792 607.562 202.5 602.562 202.5C596.979 202.5 592.25 201.896 588.375 200.688C584.5 199.438 581.479 197.583 579.312 195.125C577.188 192.625 575.667 189.625 574.75 186.125C573.833 182.583 573.375 177.292 573.375 170.25V149C573.375 141.292 574.208 135.271 575.875 130.938C577.542 126.604 580.542 123.125 584.875 120.5C589.208 117.875 594.75 116.562 601.5 116.562C607.167 116.562 612.021 117.417 616.062 119.125C620.146 120.792 623.292 122.979 625.5 125.688C627.708 128.396 629.208 131.188 630 134.062C630.833 136.938 631.25 141.312 631.25 147.188ZM606 140.938C606 136.688 605.771 134.021 605.312 132.938C604.854 131.812 603.875 131.25 602.375 131.25C600.875 131.25 599.875 131.812 599.375 132.938C598.875 134.021 598.625 136.688 598.625 140.938V178.375C598.625 182.292 598.875 184.854 599.375 186.062C599.875 187.229 600.854 187.812 602.312 187.812C603.812 187.812 604.792 187.271 605.25 186.188C605.75 185.104 606 182.771 606 179.188V140.938ZM697.438 118.062V201H671.75L672.188 194.125C670.438 196.917 668.271 199.021 665.688 200.438C663.146 201.812 660.208 202.5 656.875 202.5C653.083 202.5 649.938 201.833 647.438 200.5C644.938 199.167 643.083 197.396 641.875 195.188C640.708 192.979 639.979 190.688 639.688 188.312C639.396 185.896 639.25 181.125 639.25 174V118.062H664.5V174.5C664.5 180.958 664.688 184.792 665.062 186C665.479 187.208 666.562 187.812 668.312 187.812C670.188 187.812 671.292 187.188 671.625 185.938C672 184.688 672.188 180.667 672.188 173.875V118.062H697.438ZM731.75 118.062L730.75 128.938C734.417 121.146 739.729 117.021 746.688 116.562V145.75C742.062 145.75 738.667 146.375 736.5 147.625C734.333 148.875 733 150.625 732.5 152.875C732 155.083 731.75 160.208 731.75 168.25V201H706.5V118.062H731.75Z" fill="white"/>
</svg>
