<svg width="173" height="204" viewBox="0 0 173 204" fill="none" xmlns="http://www.w3.org/2000/svg">
<path d="M97.0422 97.4247L92.8116 101.658L97.035 105.899L164.278 173.423C151.688 184.57 136.36 192.202 119.831 195.498C101.347 199.185 82.1897 197.284 64.7811 190.036C47.3723 182.788 32.4927 170.517 22.0278 154.772C11.5628 139.027 5.98399 120.517 6.00003 101.584C6.01608 82.6515 11.6262 64.151 22.1179 48.4239C32.6094 32.697 47.5098 20.4514 64.9309 13.233C82.3517 6.01475 101.513 4.14686 119.99 7.86472C136.513 11.1894 151.828 18.8478 164.399 30.0157L97.0422 97.4247Z" stroke="white" stroke-width="12"/>
<path d="M62.4749 195.575C62.4749 195.575 45.1524 173.943 26 160L92 94L172.878 173.557C158.71 187.779 140.657 197.463 121.005 201.382C101.352 205.302 62.4749 195.575 62.4749 195.575Z" fill="white"/>
</svg>
